<svg id="visual" viewBox="0 0 900 600" width="900" height="600" xmlns="http://www.w3.org/2000/svg" xmlns:xlink="http://www.w3.org/1999/xlink" version="1.1"><path d="M0 402L21.5 395.7C43 389.3 86 376.7 128.8 376.3C171.7 376 214.3 388 257.2 392C300 396 343 392 385.8 385.5C428.7 379 471.3 370 514.2 370.3C557 370.7 600 380.3 642.8 391.8C685.7 403.3 728.3 416.7 771.2 415C814 413.3 857 396.7 878.5 388.3L900 380L900 601L878.5 601C857 601 814 601 771.2 601C728.3 601 685.7 601 642.8 601C600 601 557 601 514.2 601C471.3 601 428.7 601 385.8 601C343 601 300 601 257.2 601C214.3 601 171.7 601 128.8 601C86 601 43 601 21.5 601L0 601Z" fill="#9e4c8f"></path><path d="M0 472L21.5 466.5C43 461 86 450 128.8 440.3C171.7 430.7 214.3 422.3 257.2 415.3C300 408.3 343 402.7 385.8 400.8C428.7 399 471.3 401 514.2 410.2C557 419.3 600 435.7 642.8 436C685.7 436.3 728.3 420.7 771.2 412C814 403.3 857 401.7 878.5 400.8L900 400L900 601L878.5 601C857 601 814 601 771.2 601C728.3 601 685.7 601 642.8 601C600 601 557 601 514.2 601C471.3 601 428.7 601 385.8 601C343 601 300 601 257.2 601C214.3 601 171.7 601 128.8 601C86 601 43 601 21.5 601L0 601Z" fill="#8d4480"></path><path d="M0 473L21.5 474.3C43 475.7 86 478.3 128.8 473.3C171.7 468.3 214.3 455.7 257.2 454.8C300 454 343 465 385.8 467.2C428.7 469.3 471.3 462.7 514.2 459.8C557 457 600 458 642.8 462.3C685.7 466.7 728.3 474.3 771.2 479.3C814 484.3 857 486.7 878.5 487.8L900 489L900 601L878.5 601C857 601 814 601 771.2 601C728.3 601 685.7 601 642.8 601C600 601 557 601 514.2 601C471.3 601 428.7 601 385.8 601C343 601 300 601 257.2 601C214.3 601 171.7 601 128.8 601C86 601 43 601 21.5 601L0 601Z" fill="#7d3d71"></path><path d="M0 533L21.5 528.5C43 524 86 515 128.8 509.5C171.7 504 214.3 502 257.2 501.8C300 501.7 343 503.3 385.8 500.5C428.7 497.7 471.3 490.3 514.2 489.7C557 489 600 495 642.8 504.2C685.7 513.3 728.3 525.7 771.2 528.5C814 531.3 857 524.7 878.5 521.3L900 518L900 601L878.5 601C857 601 814 601 771.2 601C728.3 601 685.7 601 642.8 601C600 601 557 601 514.2 601C471.3 601 428.7 601 385.8 601C343 601 300 601 257.2 601C214.3 601 171.7 601 128.8 601C86 601 43 601 21.5 601L0 601Z" fill="#6d3562"></path><path d="M0 560L21.5 560.7C43 561.3 86 562.7 128.8 564.3C171.7 566 214.3 568 257.2 563.2C300 558.3 343 546.7 385.8 540.2C428.7 533.7 471.3 532.3 514.2 531.3C557 530.3 600 529.7 642.8 531.8C685.7 534 728.3 539 771.2 541C814 543 857 542 878.5 541.5L900 541L900 601L878.5 601C857 601 814 601 771.2 601C728.3 601 685.7 601 642.8 601C600 601 557 601 514.2 601C471.3 601 428.7 601 385.8 601C343 601 300 601 257.2 601C214.3 601 171.7 601 128.8 601C86 601 43 601 21.5 601L0 601Z" fill="#5d2e54"></path></svg>